<?xml version="1.0" encoding="utf-8"?>
<!-- Generator: Adobe Illustrator 21.1.0, SVG Export Plug-In . SVG Version: 6.00 Build 0)  -->
<svg version="1.1" id="レイヤー_1" xmlns="http://www.w3.org/2000/svg" xmlns:xlink="http://www.w3.org/1999/xlink" x="0px"
	 y="0px" viewBox="0 0 595.3 841.9" style="enable-background:new 0 0 595.3 841.9;" xml:space="preserve">
<g>
	<polygon points="270.4,445 323.6,445 323.6,440.4 270.4,441.5 	"/>
	<polygon points="270.4,449.6 323.6,450.7 323.6,446.2 270.4,446.2 	"/>
	<path d="M284.8,430.8v2.6c0,2.7,5.4,4.9,12.2,4.9c6.7,0,12.2-2.2,12.2-4.9v-2.6c10.7-4.7,18.1-15.3,18.1-27.7
		c0-6.7-13.5-12.2-30.3-12.2c-16.7,0-30.3,5.4-30.3,12.2C266.7,415.5,274.2,426.2,284.8,430.8z M271.7,403.1c0-0.3,1.1-2.1,5.8-4
		c5.1-2,12.2-3.2,19.5-3.2c7.4,0,14.5,1.2,19.6,3.2c4.7,1.9,5.8,3.7,5.8,4c0,0.3-1.1,2.1-5.8,4c-5.1,2-12.2,3.2-19.6,3.2
		c-7.4,0-14.5-1.2-19.5-3.2C272.8,405.3,271.7,403.4,271.7,403.1z"/>
</g>
</svg>
