<?xml version="1.0" encoding="utf-8"?>
<!-- Generator: Adobe Illustrator 21.1.0, SVG Export Plug-In . SVG Version: 6.00 Build 0)  -->
<svg version="1.1" id="レイヤー_1" xmlns="http://www.w3.org/2000/svg" xmlns:xlink="http://www.w3.org/1999/xlink" x="0px"
	 y="0px" viewBox="0 0 595.3 841.9" style="enable-background:new 0 0 595.3 841.9;" xml:space="preserve">
<g>
	<path d="M297,416.3c-4.8,0-8.6,3.9-8.6,8.7c0,4.8,3.9,8.7,8.6,8.7c4.8,0,8.6-3.9,8.6-8.7C305.6,420.2,301.8,416.3,297,416.3z"/>
	<path d="M327.9,404h-8.1c-1.8,0-3.5-1.1-4.2-2.7l-2.4-5.5c-0.7-1.7-2.4-2.7-4.2-2.7h-23.8c-1.8,0-3.5,1.1-4.2,2.7l-2.4,5.5
		c-0.7,1.7-2.4,2.7-4.2,2.7h-8.1c-2.5,0-4.6,2.1-4.6,4.6v35c0,2.6,2.1,4.6,4.6,4.6H300h27.9c2.5,0,4.6-2.1,4.6-4.6v-35
		C332.5,406.1,330.4,404,327.9,404z M297,441.2c-8.8,0-16-7.2-16-16.1c0-8.9,7.2-16.1,16-16.1c8.8,0,16,7.2,16,16.1
		C313,433.9,305.8,441.2,297,441.2z"/>
</g>
</svg>
