<?xml version="1.0" encoding="utf-8"?>
<!-- Generator: Adobe Illustrator 21.1.0, SVG Export Plug-In . SVG Version: 6.00 Build 0)  -->
<svg version="1.1" id="レイヤー_1" xmlns="http://www.w3.org/2000/svg" xmlns:xlink="http://www.w3.org/1999/xlink" x="0px"
	 y="0px" viewBox="0 0 595.3 841.9" style="enable-background:new 0 0 595.3 841.9;" xml:space="preserve">
<g>
	<path d="M329.1,424.8c-0.5-1.3-1.7-2.8-2.7-3.7c-2.2-2.1-4.6-3.2-5.7-3.8c-0.9-0.5-2-0.2-2.5,0.7c-0.5,0.9-0.2,2,0.7,2.6
		c5.5,3.7,6.4,8.2,2.4,12.9c-1.2,1.4-2.8,2.5-5.1,3.8c-3.8,2.1-11.7,4-19.2,4c-7.6,0-15.4-1.9-19.2-4c-2.3-1.3-3.9-2.4-5.1-3.8
		c-4-4.7-3.1-9.2,2.4-12.9c0.8-0.6,1.2-1.7,0.7-2.6c-0.5-0.9-1.6-1.2-2.5-0.7c-1.2,0.6-3.5,1.7-5.7,3.8c-0.9,0.9-2.2,2.4-2.7,3.7
		c-0.5,1.3-0.7,2.7-0.7,4.2c0,1.5,0.3,3,0.8,4.4c0.9,2.5,2.5,4.6,4.6,6.4c3,2.7,7.1,4.8,11.7,6.3c4.7,1.5,10,2.3,15.7,2.3
		c5.7,0,11-0.8,15.7-2.3c4.7-1.5,8.7-3.6,11.7-6.3c2-1.8,3.6-4,4.6-6.4c0.5-1.4,0.8-2.9,0.8-4.4
		C329.8,427.6,329.5,426.1,329.1,424.8z"/>
	<path d="M294.9,428.3c0.9,2,2,3.3,2.9,4c0.9,0.7,1.6,0.9,2.1,0.6c0.5-0.3,0.7-1.1,0.5-2.2c-0.2-1.1-0.7-2.4-1-4
		c-0.3-1.6-0.5-3.6-0.5-5.8c0-1.1,0.1-2.2,0.3-3.3c0.2-1.1,0.6-2.2,1.1-3.5c0.5-1.3,1.1-2.9,1.3-4.5c0.3-1.6,0.3-3.1,0.3-4.5
		c-0.2-2.7-0.7-5.2-1.6-7.2c-0.9-2-2-3.3-2.9-4c-0.9-0.7-1.6-0.9-2.1-0.6c-0.5,0.3-0.7,1.1-0.5,2.2c0.2,1.1,0.7,2.4,1,4
		c0.3,1.6,0.5,3.6,0.5,5.8c0,1.1-0.1,2.2-0.3,3.3c-0.2,1.1-0.6,2.2-1.1,3.5c-0.5,1.3-1.1,2.9-1.3,4.5c-0.3,1.6-0.3,3.1-0.3,4.5
		C293.4,423.9,294,426.3,294.9,428.3z"/>
	<path d="M306.4,423.7c0.3,1.1,0.6,2.1,1.1,3c0.9,1.8,2,2.9,2.9,3.5c0.9,0.6,1.5,0.7,2.1,0.4c0.5-0.3,0.6-1.1,0.4-2.1
		c-0.2-1-0.6-2.2-0.9-3.5c-0.3-1.3-0.5-3.1-0.5-5c0-0.9,0.1-1.9,0.3-2.8c0.2-0.9,0.6-1.8,1.1-3c0.5-1.2,1.1-2.6,1.4-4
		c0.3-1.5,0.4-2.9,0.3-4.2c-0.1-1.3-0.2-2.4-0.5-3.6c-0.3-1.1-0.6-2.1-1.1-3c-0.9-1.8-2-2.9-2.9-3.5c-0.9-0.6-1.5-0.7-2.1-0.4
		c-0.5,0.3-0.6,1.1-0.4,2.1c0.2,1,0.6,2.2,0.9,3.5c0.3,1.3,0.5,3.1,0.5,5c0,0.9-0.1,1.9-0.3,2.8c-0.2,0.9-0.6,1.8-1.1,3
		c-0.5,1.2-1.1,2.6-1.4,4c-0.3,1.5-0.4,2.9-0.3,4.2C305.9,421.5,306.1,422.6,306.4,423.7z"/>
	<path d="M280.8,423.7c0.3,1.1,0.6,2.1,1.1,3c0.9,1.8,2,2.9,2.9,3.5c0.9,0.6,1.5,0.7,2.1,0.4c0.5-0.3,0.6-1.1,0.4-2.1
		c-0.2-1-0.6-2.2-0.9-3.5c-0.3-1.3-0.5-3.1-0.5-5c0-0.9,0.1-1.9,0.3-2.8c0.2-0.9,0.6-1.8,1.1-3c0.5-1.2,1.1-2.6,1.4-4
		c0.3-1.5,0.4-2.9,0.3-4.2c-0.1-1.3-0.2-2.4-0.5-3.6c-0.3-1.1-0.6-2.1-1.1-3c-0.9-1.8-2-2.9-2.9-3.5c-0.9-0.6-1.5-0.7-2.1-0.4
		c-0.5,0.3-0.6,1.1-0.4,2.1c0.2,1,0.6,2.1,0.9,3.5c0.3,1.3,0.5,3.1,0.5,5c0,0.9-0.1,1.9-0.3,2.8c-0.2,0.9-0.6,1.8-1.1,3
		c-0.5,1.2-1.1,2.6-1.4,4c-0.3,1.5-0.4,2.9-0.3,4.2C280.4,421.5,280.5,422.6,280.8,423.7z"/>
</g>
</svg>
