<?xml version="1.0" encoding="utf-8"?>
<!-- Generator: Adobe Illustrator 21.1.0, SVG Export Plug-In . SVG Version: 6.00 Build 0)  -->
<svg version="1.1" id="レイヤー_1" xmlns="http://www.w3.org/2000/svg" xmlns:xlink="http://www.w3.org/1999/xlink" x="0px"
	 y="0px" viewBox="0 0 595.3 841.9" style="enable-background:new 0 0 595.3 841.9;" xml:space="preserve">
<g>
	<g>
		<path d="M297.4,399.9c3.4,0,6.2-2.8,6.2-6.2c0-3.4-2.8-6.2-6.2-6.2c-3.4,0-6.2,2.8-6.2,6.2C291.2,397.2,294,399.9,297.4,399.9z"/>
		<path d="M310.8,438.4l-2.9-15.1l-1.3-13.4c-0.8-8.9-9.4-8.2-13.6-4.1l-7,7.2l-6.5,2.1l-1.3-7.3c-0.1-0.8-0.9-1.3-1.7-1.2
			c-0.8,0.1-1.3,0.9-1.2,1.7l1.4,7.7l-0.2,0.1c-1.3,0.5-2,1.8-1.6,3.1l0,0.1c0.4,1.1,1.4,1.8,2.6,1.8l5.4,30.5
			c0.1,0.8,0.9,1.3,1.7,1.2c0.8-0.1,1.3-0.9,1.2-1.7l-5.4-30.6l5.8-1.3c1.4-0.3,2.7-0.9,3.8-1.7l3.8-2.6l1.3,10.2
			c0.1,0.7-0.8,3.9-1,4.6l-5.7,19.4c-0.4,1.6,0.5,3.2,2,3.6l0.1,0c1.5,0.4,3-0.4,3.6-1.8L302,432l2,8.6c0.3,0.6,0.7,1.1,1.1,1.5
			l9.1,9.7c1.1,1.1,2.8,1.1,3.9,0.1l0.1-0.1c0.6-0.5,0.9-1.2,1-2c0-0.8-0.2-1.5-0.7-2.1L310.8,438.4z"/>
		<path d="M316,422.2c1-0.1,2-0.6,2.7-1.4c0.7-0.8,1-1.8,0.9-2.9l-0.9-9.3c-0.2-2.2-2.1-3.8-4.3-3.6l-4.8,0.4l1.6,17.1L316,422.2z"
			/>
	</g>
</g>
</svg>
