<?xml version="1.0" encoding="utf-8"?>
<!-- Generator: Adobe Illustrator 21.1.0, SVG Export Plug-In . SVG Version: 6.00 Build 0)  -->
<svg version="1.1" id="レイヤー_1" xmlns="http://www.w3.org/2000/svg" xmlns:xlink="http://www.w3.org/1999/xlink" x="0px"
	 y="0px" viewBox="0 0 595.3 841.9" style="enable-background:new 0 0 595.3 841.9;" xml:space="preserve">
<g>
	<path d="M329.6,416.9c-0.1-0.1-4.2-2.9-4.2-2.9c-0.3-0.2-0.4-0.6-0.3-0.9c0,0,1.6-4.7,1.6-4.8c0-0.1,0-0.2-0.1-0.3
		c-1-0.6-7.8-3.2-16.2-3.5c-2.9-7.9-7.5-13.6-8.4-14.3c-0.1-0.1-0.2-0.1-0.3,0c-0.1,0.1-4.1,3.1-4.1,3.1c-0.3,0.2-0.7,0.2-1,0
		c0,0-4-3-4.1-3.1c-0.1-0.1-0.2-0.1-0.3,0c-0.9,0.7-5.5,6.4-8.4,14.3c-8.4,0.3-15.2,2.9-16.2,3.5c-0.1,0.1-0.1,0.2-0.1,0.3
		c0,0.1,1.6,4.8,1.6,4.8c0.1,0.3,0,0.7-0.3,0.9c0,0-4.1,2.9-4.2,2.9c-0.1,0.1-0.1,0.2-0.1,0.3c0.4,1.1,4.4,7.2,11,12.4
		c-2.3,8.1-1.9,15.4-1.6,16.5c0,0.1,0.1,0.2,0.3,0.2c0.1,0,5.1-0.1,5.1-0.1c0.4,0,0.7,0.2,0.8,0.6c0,0,1.5,4.8,1.5,4.9
		c0,0.1,0.1,0.2,0.3,0.2c1.1-0.1,8.2-1.9,15.2-6.6c7,4.7,14.1,6.5,15.2,6.6c0.1,0,0.2-0.1,0.3-0.2c0-0.1,1.5-4.9,1.5-4.9
		c0.1-0.3,0.4-0.6,0.8-0.6c0,0,5,0.1,5.1,0.1c0.1,0,0.2-0.1,0.3-0.2c0.3-1.1,0.7-8.3-1.6-16.4c6.6-5.2,10.6-11.4,11-12.4
		C329.7,417.1,329.7,416.9,329.6,416.9z M285.7,422.6c0-1.1,0.9-2.1,2.1-2.1c1.1,0,2.1,0.9,2.1,2.1c0,1.1-0.9,2.1-2.1,2.1
		C286.7,424.7,285.7,423.7,285.7,422.6z M292,430.7c-0.8,0.8-2.1,0.8-2.9,0c-0.8-0.8-0.8-2.1,0-2.9c0.8-0.8,2.1-0.8,2.9,0
		C292.9,428.6,292.9,429.9,292,430.7z M292,417.4c-0.8,0.8-2.1,0.8-2.9,0c-0.8-0.8-0.8-2.1,0-2.9c0.8-0.8,2.1-0.8,2.9,0
		C292.9,415.3,292.9,416.6,292,417.4z M297.2,411.1c1.2,0,2.1,0.9,2.1,2.1c0,1.2-0.9,2.1-2.1,2.1c-1.1,0-2.1-0.9-2.1-2.1
		C295.2,412,296.1,411.1,297.2,411.1z M297.2,434.1c-1.1,0-2.1-0.9-2.1-2.1c0-1.1,0.9-2.1,2.1-2.1c1.2,0,2.1,0.9,2.1,2.1
		C299.3,433.2,298.4,434.1,297.2,434.1z M297.2,425.5c-1.6,0-2.9-1.3-2.9-2.9c0-1.6,1.3-2.9,2.9-2.9c1.6,0,2.9,1.3,2.9,2.9
		C300.1,424.2,298.8,425.5,297.2,425.5z M302.5,414.4c0.8-0.8,2.1-0.8,2.9,0c0.8,0.8,0.8,2.1,0,2.9c-0.8,0.8-2.1,0.8-2.9,0
		C301.6,416.6,301.6,415.3,302.5,414.4z M305.4,430.7c-0.8,0.8-2.1,0.8-2.9,0c-0.8-0.8-0.8-2.1,0-2.9c0.8-0.8,2.1-0.8,2.9,0
		C306.2,428.6,306.2,429.9,305.4,430.7z M306.7,424.7c-1.2,0-2.1-0.9-2.1-2.1c0-1.1,0.9-2.1,2.1-2.1c1.1,0,2.1,0.9,2.1,2.1
		C308.8,423.7,307.8,424.7,306.7,424.7z"/>
</g>
</svg>
